<svg xmlns="http://www.w3.org/2000/svg" xmlns:xlink="http://www.w3.org/1999/xlink" width="100" zoomAndPan="magnify" viewBox="0 0 75 30.000001" height="40" preserveAspectRatio="xMidYMid meet" version="1.0"><defs><clipPath id="9c71c7059e"><path d="M 33.09375 10.308594 L 48.269531 10.308594 L 48.269531 18.640625 L 33.09375 18.640625 Z M 33.09375 10.308594 " clip-rule="nonzero"/></clipPath><clipPath id="9774456605"><path d="M 49.167969 11 L 55 11 L 55 17 L 49.167969 17 Z M 49.167969 11 " clip-rule="nonzero"/></clipPath></defs><g clip-path="url(#9c71c7059e)"><path fill="#f59e0b" d="M 44.886719 11.714844 C 44.882812 11.6875 44.882812 11.664062 44.886719 11.640625 L 44.886719 10.976562 C 44.886719 10.953125 44.875 10.9375 44.863281 10.921875 L 44.855469 10.917969 C 44.84375 10.90625 44.828125 10.902344 44.808594 10.902344 L 43.839844 10.902344 C 43.816406 10.902344 43.796875 10.910156 43.785156 10.921875 C 43.773438 10.933594 43.761719 10.953125 43.761719 10.976562 L 43.761719 18.066406 C 43.761719 18.085938 43.773438 18.105469 43.785156 18.121094 L 43.785156 18.117188 C 43.796875 18.132812 43.820312 18.140625 43.839844 18.140625 L 44.808594 18.140625 C 44.828125 18.140625 44.851562 18.132812 44.863281 18.117188 C 44.875 18.105469 44.886719 18.085938 44.886719 18.066406 L 44.886719 17.402344 C 44.882812 17.378906 44.882812 17.351562 44.886719 17.328125 Z M 36.6875 18.140625 L 37.214844 18.140625 C 37.296875 18.140625 37.371094 18.109375 37.425781 18.054688 C 37.476562 18 37.511719 17.925781 37.511719 17.84375 L 37.511719 11.195312 C 37.511719 11.117188 37.476562 11.042969 37.425781 10.988281 C 37.371094 10.933594 37.296875 10.902344 37.214844 10.902344 L 36.6875 10.902344 C 36.605469 10.902344 36.53125 10.933594 36.476562 10.984375 L 36.476562 10.988281 C 36.421875 11.039062 36.390625 11.113281 36.390625 11.195312 L 36.390625 17.84375 C 36.390625 17.925781 36.425781 18 36.476562 18.054688 C 36.53125 18.109375 36.605469 18.140625 36.6875 18.140625 Z M 37.214844 18.734375 L 36.6875 18.734375 C 36.441406 18.734375 36.21875 18.632812 36.058594 18.472656 C 35.898438 18.3125 35.796875 18.089844 35.796875 17.84375 L 35.796875 17.667969 L 34.976562 17.667969 C 34.730469 17.667969 34.507812 17.566406 34.347656 17.402344 C 34.1875 17.246094 34.085938 17.019531 34.085938 16.777344 L 34.085938 15.46875 L 34.054688 15.46875 C 33.792969 15.46875 33.558594 15.363281 33.386719 15.191406 C 33.214844 15.019531 33.105469 14.78125 33.105469 14.519531 C 33.105469 14.257812 33.214844 14.023438 33.386719 13.851562 C 33.558594 13.679688 33.792969 13.574219 34.054688 13.574219 L 34.085938 13.574219 L 34.085938 12.265625 C 34.085938 12.019531 34.1875 11.800781 34.347656 11.636719 C 34.507812 11.476562 34.730469 11.375 34.976562 11.375 L 35.796875 11.375 L 35.796875 11.195312 C 35.796875 10.953125 35.898438 10.730469 36.058594 10.570312 C 36.222656 10.40625 36.441406 10.308594 36.6875 10.308594 L 37.214844 10.308594 C 37.460938 10.308594 37.679688 10.40625 37.84375 10.570312 C 38.003906 10.730469 38.101562 10.953125 38.101562 11.195312 L 38.101562 13.574219 L 43.171875 13.574219 L 43.171875 10.976562 C 43.171875 10.792969 43.246094 10.625 43.367188 10.503906 C 43.488281 10.382812 43.65625 10.308594 43.839844 10.308594 L 44.808594 10.308594 C 44.984375 10.308594 45.140625 10.375 45.261719 10.484375 C 45.265625 10.492188 45.273438 10.496094 45.28125 10.503906 C 45.402344 10.625 45.476562 10.792969 45.476562 10.976562 L 45.476562 11.375 L 46.296875 11.375 C 46.542969 11.375 46.765625 11.476562 46.925781 11.636719 C 47.085938 11.796875 47.183594 12.019531 47.183594 12.265625 L 47.183594 13.574219 L 47.214844 13.574219 C 47.476562 13.574219 47.714844 13.679688 47.886719 13.851562 C 48.058594 14.023438 48.164062 14.257812 48.164062 14.519531 C 48.164062 14.78125 48.058594 15.019531 47.886719 15.191406 C 47.714844 15.363281 47.476562 15.46875 47.214844 15.46875 L 47.183594 15.46875 L 47.183594 16.777344 C 47.183594 17.019531 47.085938 17.242188 46.925781 17.402344 L 46.921875 17.402344 C 46.765625 17.566406 46.539062 17.667969 46.296875 17.667969 L 45.476562 17.667969 L 45.476562 18.066406 C 45.476562 18.25 45.402344 18.417969 45.28125 18.535156 C 45.160156 18.65625 44.992188 18.734375 44.808594 18.734375 L 43.839844 18.734375 C 43.65625 18.734375 43.488281 18.65625 43.367188 18.535156 C 43.246094 18.417969 43.171875 18.25 43.171875 18.066406 L 43.171875 15.46875 L 38.101562 15.46875 L 38.101562 17.84375 C 38.101562 18.089844 38.003906 18.3125 37.84375 18.472656 L 37.839844 18.472656 C 37.679688 18.632812 37.457031 18.734375 37.214844 18.734375 Z M 35.796875 17.074219 L 35.796875 11.96875 L 34.976562 11.96875 C 34.894531 11.96875 34.820312 12 34.765625 12.054688 C 34.710938 12.109375 34.675781 12.183594 34.675781 12.265625 L 34.675781 16.777344 C 34.675781 16.859375 34.710938 16.933594 34.765625 16.988281 C 34.820312 17.039062 34.894531 17.074219 34.976562 17.074219 Z M 38.101562 14.164062 L 38.101562 14.878906 L 43.171875 14.878906 L 43.171875 14.164062 Z M 34.085938 14.878906 L 34.085938 14.164062 L 34.054688 14.164062 C 33.957031 14.164062 33.867188 14.207031 33.804688 14.269531 C 33.738281 14.332031 33.699219 14.421875 33.699219 14.519531 C 33.699219 14.617188 33.738281 14.707031 33.804688 14.773438 C 33.867188 14.835938 33.957031 14.878906 34.054688 14.878906 Z M 47.183594 14.878906 L 47.214844 14.878906 C 47.316406 14.878906 47.402344 14.835938 47.46875 14.773438 C 47.53125 14.707031 47.574219 14.617188 47.574219 14.519531 C 47.574219 14.421875 47.53125 14.332031 47.46875 14.269531 C 47.402344 14.207031 47.316406 14.164062 47.214844 14.164062 L 47.183594 14.164062 Z M 45.476562 17.074219 L 46.296875 17.074219 C 46.378906 17.074219 46.453125 17.039062 46.507812 16.988281 C 46.5625 16.933594 46.59375 16.859375 46.59375 16.777344 L 46.59375 12.265625 C 46.59375 12.183594 46.5625 12.109375 46.507812 12.054688 C 46.453125 12 46.378906 11.96875 46.296875 11.96875 L 45.476562 11.96875 Z M 45.476562 17.074219 " fill-opacity="1" fill-rule="evenodd"/></g><path fill="#ffffff" d="M 9.632812 14.230469 L 11.378906 14.230469 L 10.699219 17.632812 C 10.28125 17.957031 9.792969 18.203125 9.242188 18.378906 C 8.691406 18.550781 8.121094 18.636719 7.53125 18.636719 C 6.703125 18.636719 5.980469 18.488281 5.367188 18.191406 C 4.753906 17.890625 4.28125 17.46875 3.945312 16.925781 C 3.613281 16.378906 3.445312 15.753906 3.445312 15.046875 C 3.445312 14.109375 3.660156 13.261719 4.097656 12.507812 C 4.53125 11.75 5.140625 11.160156 5.925781 10.734375 C 6.714844 10.304688 7.617188 10.089844 8.640625 10.089844 C 9.429688 10.089844 10.113281 10.210938 10.691406 10.453125 C 11.269531 10.699219 11.738281 11.054688 12.09375 11.527344 L 10.722656 12.636719 C 10.445312 12.3125 10.132812 12.082031 9.785156 11.9375 C 9.441406 11.792969 9.03125 11.71875 8.558594 11.71875 C 7.929688 11.71875 7.375 11.859375 6.890625 12.140625 C 6.410156 12.417969 6.039062 12.800781 5.777344 13.289062 C 5.515625 13.773438 5.386719 14.324219 5.386719 14.929688 C 5.386719 15.566406 5.589844 16.074219 6.003906 16.449219 C 6.417969 16.820312 7.007812 17.007812 7.777344 17.007812 C 8.265625 17.007812 8.722656 16.90625 9.148438 16.710938 Z M 9.632812 14.230469 " fill-opacity="1" fill-rule="nonzero"/><path fill="#ffffff" d="M 17.125 15.625 L 16.554688 18.496094 L 14.644531 18.496094 L 15.222656 15.542969 L 13.09375 10.230469 L 15.011719 10.230469 L 16.484375 13.914062 L 19.449219 10.230469 L 21.421875 10.230469 Z M 17.125 15.625 " fill-opacity="1" fill-rule="nonzero"/><path fill="#ffffff" d="M 31.742188 10.230469 L 30.101562 18.496094 L 28.308594 18.496094 L 29.277344 13.585938 L 26.121094 17.621094 L 25.269531 17.621094 L 23.574219 13.535156 L 22.582031 18.496094 L 20.78125 18.496094 L 22.4375 10.230469 L 23.992188 10.230469 L 26.066406 15.375 L 30.101562 10.230469 Z M 31.742188 10.230469 " fill-opacity="1" fill-rule="nonzero"/><g clip-path="url(#9774456605)"><path fill="#f59e0b" d="M 51.539062 12.066406 L 51.203125 13.746094 L 53.957031 13.746094 L 53.820312 14.410156 L 51.074219 14.410156 L 50.71875 16.167969 L 53.910156 16.167969 L 53.78125 16.851562 L 49.808594 16.851562 L 50.898438 11.382812 L 54.753906 11.382812 L 54.625 12.066406 Z M 51.539062 12.066406 " fill-opacity="1" fill-rule="nonzero"/></g><path fill="#f59e0b" d="M 58.515625 11.382812 L 59.296875 11.382812 L 58.335938 16.167969 L 61.304688 16.167969 L 61.167969 16.851562 L 57.421875 16.851562 Z M 58.515625 11.382812 " fill-opacity="1" fill-rule="nonzero"/><path fill="#f59e0b" d="M 67.570312 11.382812 C 68.203125 11.382812 68.695312 11.523438 69.046875 11.804688 C 69.394531 12.082031 69.574219 12.472656 69.574219 12.980469 C 69.574219 13.445312 69.46875 13.84375 69.261719 14.171875 C 69.058594 14.503906 68.761719 14.757812 68.375 14.933594 C 67.992188 15.109375 67.535156 15.195312 67.011719 15.195312 L 65.546875 15.195312 L 65.226562 16.851562 L 64.445312 16.851562 L 65.535156 11.382812 Z M 67.03125 14.511719 C 67.589844 14.511719 68.027344 14.390625 68.332031 14.140625 C 68.636719 13.890625 68.792969 13.527344 68.792969 13.058594 C 68.792969 12.734375 68.679688 12.488281 68.457031 12.320312 C 68.234375 12.148438 67.914062 12.066406 67.496094 12.066406 L 66.179688 12.066406 L 65.691406 14.511719 Z M 67.03125 14.511719 " fill-opacity="1" fill-rule="nonzero"/></svg>